<mxfile host="app.diagrams.net" modified="2023-05-09T10:46:02.060Z" agent="Mozilla/5.0 (Windows NT 10.0; Win64; x64) AppleWebKit/537.36 (KHTML, like Gecko) Chrome/112.0.0.0 Safari/537.36" etag="TrvKnJItIQVYajDSU-NS" version="21.2.9" type="device">
  <diagram name="Σελίδα-1" id="E-_WtiwZx5cQUKk03LLP">
    <mxGraphModel dx="453" dy="453" grid="1" gridSize="10" guides="1" tooltips="1" connect="1" arrows="1" fold="1" page="1" pageScale="1" pageWidth="1169" pageHeight="1654" math="0" shadow="0">
      <root>
        <mxCell id="0" />
        <mxCell id="1" parent="0" />
        <mxCell id="sFwdMUUMSRQ0KmY-GtLs-32" value="" style="shape=umlLifeline;perimeter=lifelinePerimeter;whiteSpace=wrap;html=1;container=1;dropTarget=0;collapsible=0;recursiveResize=0;outlineConnect=0;portConstraint=eastwest;newEdgeStyle={&quot;edgeStyle&quot;:&quot;elbowEdgeStyle&quot;,&quot;elbow&quot;:&quot;vertical&quot;,&quot;curved&quot;:0,&quot;rounded&quot;:0};participant=umlBoundary;" parent="1" vertex="1">
          <mxGeometry x="190" y="70" width="50" height="850" as="geometry" />
        </mxCell>
        <mxCell id="sFwdMUUMSRQ0KmY-GtLs-108" value="" style="html=1;points=[];perimeter=orthogonalPerimeter;outlineConnect=0;targetShapes=umlLifeline;portConstraint=eastwest;newEdgeStyle={&quot;edgeStyle&quot;:&quot;elbowEdgeStyle&quot;,&quot;elbow&quot;:&quot;vertical&quot;,&quot;curved&quot;:0,&quot;rounded&quot;:0};" parent="sFwdMUUMSRQ0KmY-GtLs-32" vertex="1">
          <mxGeometry x="20" y="90" width="10" height="610" as="geometry" />
        </mxCell>
        <mxCell id="sFwdMUUMSRQ0KmY-GtLs-33" value="" style="shape=umlLifeline;perimeter=lifelinePerimeter;whiteSpace=wrap;html=1;container=1;dropTarget=0;collapsible=0;recursiveResize=0;outlineConnect=0;portConstraint=eastwest;newEdgeStyle={&quot;edgeStyle&quot;:&quot;elbowEdgeStyle&quot;,&quot;elbow&quot;:&quot;vertical&quot;,&quot;curved&quot;:0,&quot;rounded&quot;:0};participant=umlBoundary;" parent="1" vertex="1">
          <mxGeometry x="740" y="80" width="50" height="930" as="geometry" />
        </mxCell>
        <mxCell id="sFwdMUUMSRQ0KmY-GtLs-114" value="" style="html=1;points=[];perimeter=orthogonalPerimeter;outlineConnect=0;targetShapes=umlLifeline;portConstraint=eastwest;newEdgeStyle={&quot;edgeStyle&quot;:&quot;elbowEdgeStyle&quot;,&quot;elbow&quot;:&quot;vertical&quot;,&quot;curved&quot;:0,&quot;rounded&quot;:0};" parent="sFwdMUUMSRQ0KmY-GtLs-33" vertex="1">
          <mxGeometry x="20" y="440" width="10" height="80" as="geometry" />
        </mxCell>
        <mxCell id="sFwdMUUMSRQ0KmY-GtLs-34" value="" style="shape=umlLifeline;perimeter=lifelinePerimeter;whiteSpace=wrap;html=1;container=1;dropTarget=0;collapsible=0;recursiveResize=0;outlineConnect=0;portConstraint=eastwest;newEdgeStyle={&quot;edgeStyle&quot;:&quot;elbowEdgeStyle&quot;,&quot;elbow&quot;:&quot;vertical&quot;,&quot;curved&quot;:0,&quot;rounded&quot;:0};participant=umlBoundary;size=40;" parent="1" vertex="1">
          <mxGeometry x="340" y="70" width="50" height="910" as="geometry" />
        </mxCell>
        <mxCell id="sFwdMUUMSRQ0KmY-GtLs-35" value="" style="shape=umlLifeline;perimeter=lifelinePerimeter;whiteSpace=wrap;html=1;container=1;dropTarget=0;collapsible=0;recursiveResize=0;outlineConnect=0;portConstraint=eastwest;newEdgeStyle={&quot;edgeStyle&quot;:&quot;elbowEdgeStyle&quot;,&quot;elbow&quot;:&quot;vertical&quot;,&quot;curved&quot;:0,&quot;rounded&quot;:0};participant=umlBoundary;" parent="1" vertex="1">
          <mxGeometry x="830" y="80" width="50" height="930" as="geometry" />
        </mxCell>
        <mxCell id="sFwdMUUMSRQ0KmY-GtLs-36" value="" style="shape=umlLifeline;perimeter=lifelinePerimeter;whiteSpace=wrap;html=1;container=1;dropTarget=0;collapsible=0;recursiveResize=0;outlineConnect=0;portConstraint=eastwest;newEdgeStyle={&quot;edgeStyle&quot;:&quot;elbowEdgeStyle&quot;,&quot;elbow&quot;:&quot;vertical&quot;,&quot;curved&quot;:0,&quot;rounded&quot;:0};participant=umlBoundary;" parent="1" vertex="1">
          <mxGeometry x="510" y="70" width="50" height="920" as="geometry" />
        </mxCell>
        <mxCell id="sFwdMUUMSRQ0KmY-GtLs-111" value="" style="html=1;points=[];perimeter=orthogonalPerimeter;outlineConnect=0;targetShapes=umlLifeline;portConstraint=eastwest;newEdgeStyle={&quot;edgeStyle&quot;:&quot;elbowEdgeStyle&quot;,&quot;elbow&quot;:&quot;vertical&quot;,&quot;curved&quot;:0,&quot;rounded&quot;:0};" parent="sFwdMUUMSRQ0KmY-GtLs-36" vertex="1">
          <mxGeometry x="15" y="270" width="10" height="50" as="geometry" />
        </mxCell>
        <mxCell id="sFwdMUUMSRQ0KmY-GtLs-37" value="" style="shape=umlLifeline;perimeter=lifelinePerimeter;whiteSpace=wrap;html=1;container=1;dropTarget=0;collapsible=0;recursiveResize=0;outlineConnect=0;portConstraint=eastwest;newEdgeStyle={&quot;edgeStyle&quot;:&quot;elbowEdgeStyle&quot;,&quot;elbow&quot;:&quot;vertical&quot;,&quot;curved&quot;:0,&quot;rounded&quot;:0};participant=umlBoundary;" parent="1" vertex="1">
          <mxGeometry x="415" y="70" width="50" height="900" as="geometry" />
        </mxCell>
        <mxCell id="sFwdMUUMSRQ0KmY-GtLs-110" value="" style="html=1;points=[];perimeter=orthogonalPerimeter;outlineConnect=0;targetShapes=umlLifeline;portConstraint=eastwest;newEdgeStyle={&quot;edgeStyle&quot;:&quot;elbowEdgeStyle&quot;,&quot;elbow&quot;:&quot;vertical&quot;,&quot;curved&quot;:0,&quot;rounded&quot;:0};" parent="sFwdMUUMSRQ0KmY-GtLs-37" vertex="1">
          <mxGeometry x="20" y="250" width="10" height="20" as="geometry" />
        </mxCell>
        <mxCell id="sFwdMUUMSRQ0KmY-GtLs-38" value="" style="shape=umlLifeline;perimeter=lifelinePerimeter;whiteSpace=wrap;html=1;container=1;dropTarget=0;collapsible=0;recursiveResize=0;outlineConnect=0;portConstraint=eastwest;newEdgeStyle={&quot;edgeStyle&quot;:&quot;elbowEdgeStyle&quot;,&quot;elbow&quot;:&quot;vertical&quot;,&quot;curved&quot;:0,&quot;rounded&quot;:0};participant=umlBoundary;" parent="1" vertex="1">
          <mxGeometry x="670" y="73" width="50" height="907" as="geometry" />
        </mxCell>
        <mxCell id="sFwdMUUMSRQ0KmY-GtLs-41" value="" style="shape=umlLifeline;perimeter=lifelinePerimeter;whiteSpace=wrap;html=1;container=1;dropTarget=0;collapsible=0;recursiveResize=0;outlineConnect=0;portConstraint=eastwest;newEdgeStyle={&quot;edgeStyle&quot;:&quot;elbowEdgeStyle&quot;,&quot;elbow&quot;:&quot;vertical&quot;,&quot;curved&quot;:0,&quot;rounded&quot;:0};participant=umlBoundary;" parent="1" vertex="1">
          <mxGeometry x="1010" y="80" width="50" height="880" as="geometry" />
        </mxCell>
        <mxCell id="sFwdMUUMSRQ0KmY-GtLs-42" value="" style="shape=umlLifeline;perimeter=lifelinePerimeter;whiteSpace=wrap;html=1;container=1;dropTarget=0;collapsible=0;recursiveResize=0;outlineConnect=0;portConstraint=eastwest;newEdgeStyle={&quot;edgeStyle&quot;:&quot;elbowEdgeStyle&quot;,&quot;elbow&quot;:&quot;vertical&quot;,&quot;curved&quot;:0,&quot;rounded&quot;:0};participant=umlActor;" parent="1" vertex="1">
          <mxGeometry x="100" y="70" width="20" height="840" as="geometry" />
        </mxCell>
        <mxCell id="sFwdMUUMSRQ0KmY-GtLs-107" value="" style="html=1;points=[];perimeter=orthogonalPerimeter;outlineConnect=0;targetShapes=umlLifeline;portConstraint=eastwest;newEdgeStyle={&quot;edgeStyle&quot;:&quot;elbowEdgeStyle&quot;,&quot;elbow&quot;:&quot;vertical&quot;,&quot;curved&quot;:0,&quot;rounded&quot;:0};" parent="sFwdMUUMSRQ0KmY-GtLs-42" vertex="1">
          <mxGeometry x="5" y="90" width="10" height="480" as="geometry" />
        </mxCell>
        <mxCell id="sFwdMUUMSRQ0KmY-GtLs-43" value="" style="shape=umlLifeline;perimeter=lifelinePerimeter;whiteSpace=wrap;html=1;container=1;dropTarget=0;collapsible=0;recursiveResize=0;outlineConnect=0;portConstraint=eastwest;newEdgeStyle={&quot;edgeStyle&quot;:&quot;elbowEdgeStyle&quot;,&quot;elbow&quot;:&quot;vertical&quot;,&quot;curved&quot;:0,&quot;rounded&quot;:0};participant=umlEntity;" parent="1" vertex="1">
          <mxGeometry x="270" y="70" width="40" height="870" as="geometry" />
        </mxCell>
        <mxCell id="sFwdMUUMSRQ0KmY-GtLs-109" value="" style="html=1;points=[];perimeter=orthogonalPerimeter;outlineConnect=0;targetShapes=umlLifeline;portConstraint=eastwest;newEdgeStyle={&quot;edgeStyle&quot;:&quot;elbowEdgeStyle&quot;,&quot;elbow&quot;:&quot;vertical&quot;,&quot;curved&quot;:0,&quot;rounded&quot;:0};" parent="sFwdMUUMSRQ0KmY-GtLs-43" vertex="1">
          <mxGeometry x="15" y="130" width="10" height="120" as="geometry" />
        </mxCell>
        <mxCell id="sFwdMUUMSRQ0KmY-GtLs-46" value="" style="shape=umlLifeline;perimeter=lifelinePerimeter;whiteSpace=wrap;html=1;container=1;dropTarget=0;collapsible=0;recursiveResize=0;outlineConnect=0;portConstraint=eastwest;newEdgeStyle={&quot;edgeStyle&quot;:&quot;elbowEdgeStyle&quot;,&quot;elbow&quot;:&quot;vertical&quot;,&quot;curved&quot;:0,&quot;rounded&quot;:0};participant=umlEntity;" parent="1" vertex="1">
          <mxGeometry x="600" y="70" width="40" height="910" as="geometry" />
        </mxCell>
        <mxCell id="sFwdMUUMSRQ0KmY-GtLs-47" value="" style="shape=umlLifeline;perimeter=lifelinePerimeter;whiteSpace=wrap;html=1;container=1;dropTarget=0;collapsible=0;recursiveResize=0;outlineConnect=0;portConstraint=eastwest;newEdgeStyle={&quot;edgeStyle&quot;:&quot;elbowEdgeStyle&quot;,&quot;elbow&quot;:&quot;vertical&quot;,&quot;curved&quot;:0,&quot;rounded&quot;:0};participant=umlEntity;" parent="1" vertex="1">
          <mxGeometry x="930" y="80" width="40" height="870" as="geometry" />
        </mxCell>
        <mxCell id="sFwdMUUMSRQ0KmY-GtLs-117" value="" style="html=1;points=[];perimeter=orthogonalPerimeter;outlineConnect=0;targetShapes=umlLifeline;portConstraint=eastwest;newEdgeStyle={&quot;edgeStyle&quot;:&quot;elbowEdgeStyle&quot;,&quot;elbow&quot;:&quot;vertical&quot;,&quot;curved&quot;:0,&quot;rounded&quot;:0};" parent="sFwdMUUMSRQ0KmY-GtLs-47" vertex="1">
          <mxGeometry x="15" y="600" width="10" height="40" as="geometry" />
        </mxCell>
        <mxCell id="sFwdMUUMSRQ0KmY-GtLs-48" value="Σελίδα ραντεβού&lt;br&gt;με διατροφολόγο" style="text;html=1;align=center;verticalAlign=middle;resizable=0;points=[];autosize=1;strokeColor=none;fillColor=none;" parent="1" vertex="1">
          <mxGeometry x="165" y="23" width="110" height="40" as="geometry" />
        </mxCell>
        <mxCell id="sFwdMUUMSRQ0KmY-GtLs-49" value="Λιστα&amp;nbsp;&lt;br&gt;διατροφολογων" style="text;html=1;align=center;verticalAlign=middle;resizable=0;points=[];autosize=1;strokeColor=none;fillColor=none;" parent="1" vertex="1">
          <mxGeometry x="245" y="23" width="110" height="40" as="geometry" />
        </mxCell>
        <mxCell id="sFwdMUUMSRQ0KmY-GtLs-51" value="bookNutritionist()" style="endArrow=classic;html=1;rounded=0;" parent="1" source="sFwdMUUMSRQ0KmY-GtLs-42" target="sFwdMUUMSRQ0KmY-GtLs-32" edge="1">
          <mxGeometry x="-0.0364" y="20" width="50" height="50" relative="1" as="geometry">
            <mxPoint x="130" y="150" as="sourcePoint" />
            <mxPoint x="500" y="270" as="targetPoint" />
            <Array as="points">
              <mxPoint x="170" y="160" />
            </Array>
            <mxPoint as="offset" />
          </mxGeometry>
        </mxCell>
        <mxCell id="sFwdMUUMSRQ0KmY-GtLs-52" value="takeData()" style="endArrow=classic;html=1;rounded=0;" parent="1" source="sFwdMUUMSRQ0KmY-GtLs-32" target="sFwdMUUMSRQ0KmY-GtLs-43" edge="1">
          <mxGeometry x="-0.0509" y="20" width="50" height="50" relative="1" as="geometry">
            <mxPoint x="450" y="320" as="sourcePoint" />
            <mxPoint x="500" y="270" as="targetPoint" />
            <Array as="points">
              <mxPoint x="240" y="200" />
            </Array>
            <mxPoint as="offset" />
          </mxGeometry>
        </mxCell>
        <mxCell id="sFwdMUUMSRQ0KmY-GtLs-53" value="show()" style="endArrow=classic;html=1;rounded=0;" parent="1" source="sFwdMUUMSRQ0KmY-GtLs-43" target="sFwdMUUMSRQ0KmY-GtLs-34" edge="1">
          <mxGeometry x="-0.1839" y="10" width="50" height="50" relative="1" as="geometry">
            <mxPoint x="450" y="320" as="sourcePoint" />
            <mxPoint x="500" y="270" as="targetPoint" />
            <Array as="points">
              <mxPoint x="330" y="230" />
            </Array>
            <mxPoint as="offset" />
          </mxGeometry>
        </mxCell>
        <mxCell id="sFwdMUUMSRQ0KmY-GtLs-57" value="Σελ λιστα με&lt;br&gt;διατροφ" style="text;html=1;align=center;verticalAlign=middle;resizable=0;points=[];autosize=1;strokeColor=none;fillColor=none;" parent="1" vertex="1">
          <mxGeometry x="325" y="33" width="90" height="40" as="geometry" />
        </mxCell>
        <mxCell id="sFwdMUUMSRQ0KmY-GtLs-58" value="chooseNutritionist()" style="endArrow=classic;html=1;rounded=0;" parent="1" source="sFwdMUUMSRQ0KmY-GtLs-42" target="sFwdMUUMSRQ0KmY-GtLs-34" edge="1">
          <mxGeometry x="-0.0282" y="10" width="50" height="50" relative="1" as="geometry">
            <mxPoint x="450" y="320" as="sourcePoint" />
            <mxPoint x="440" y="270" as="targetPoint" />
            <Array as="points">
              <mxPoint x="270" y="260" />
            </Array>
            <mxPoint as="offset" />
          </mxGeometry>
        </mxCell>
        <mxCell id="sFwdMUUMSRQ0KmY-GtLs-60" value="takeData()" style="endArrow=classic;html=1;rounded=0;dashed=1;" parent="1" source="sFwdMUUMSRQ0KmY-GtLs-34" target="sFwdMUUMSRQ0KmY-GtLs-43" edge="1">
          <mxGeometry x="0.1919" y="-10" width="50" height="50" relative="1" as="geometry">
            <mxPoint x="330" y="320" as="sourcePoint" />
            <mxPoint x="380" y="270" as="targetPoint" />
            <Array as="points">
              <mxPoint x="365" y="290" />
            </Array>
            <mxPoint as="offset" />
          </mxGeometry>
        </mxCell>
        <mxCell id="sFwdMUUMSRQ0KmY-GtLs-61" value="show()" style="endArrow=classic;html=1;rounded=0;" parent="1" source="sFwdMUUMSRQ0KmY-GtLs-43" target="sFwdMUUMSRQ0KmY-GtLs-37" edge="1">
          <mxGeometry x="-0.0588" y="10" width="50" height="50" relative="1" as="geometry">
            <mxPoint x="330" y="380" as="sourcePoint" />
            <mxPoint x="380" y="330" as="targetPoint" />
            <Array as="points">
              <mxPoint x="410" y="320" />
            </Array>
            <mxPoint as="offset" />
          </mxGeometry>
        </mxCell>
        <mxCell id="sFwdMUUMSRQ0KmY-GtLs-62" value="Σελ&amp;nbsp;&lt;br&gt;λεπτομεριες διατροφ" style="text;html=1;align=center;verticalAlign=middle;resizable=0;points=[];autosize=1;strokeColor=none;fillColor=none;" parent="1" vertex="1">
          <mxGeometry x="375" y="33" width="130" height="40" as="geometry" />
        </mxCell>
        <mxCell id="sFwdMUUMSRQ0KmY-GtLs-63" value="" style="endArrow=classic;html=1;rounded=0;" parent="1" edge="1">
          <mxGeometry width="50" height="50" relative="1" as="geometry">
            <mxPoint x="120" y="365" as="sourcePoint" />
            <mxPoint x="520" y="365" as="targetPoint" />
          </mxGeometry>
        </mxCell>
        <mxCell id="sFwdMUUMSRQ0KmY-GtLs-64" value="chooseDate()" style="edgeLabel;html=1;align=center;verticalAlign=middle;resizable=0;points=[];" parent="sFwdMUUMSRQ0KmY-GtLs-63" vertex="1" connectable="0">
          <mxGeometry x="-0.5796" y="-1" relative="1" as="geometry">
            <mxPoint y="-11" as="offset" />
          </mxGeometry>
        </mxCell>
        <mxCell id="sFwdMUUMSRQ0KmY-GtLs-65" value="show()&amp;nbsp;" style="endArrow=classic;html=1;rounded=0;" parent="1" source="sFwdMUUMSRQ0KmY-GtLs-37" target="sFwdMUUMSRQ0KmY-GtLs-36" edge="1">
          <mxGeometry x="-0.1452" y="10" width="50" height="50" relative="1" as="geometry">
            <mxPoint x="330" y="370" as="sourcePoint" />
            <mxPoint x="380" y="320" as="targetPoint" />
            <Array as="points">
              <mxPoint x="490" y="340" />
            </Array>
            <mxPoint as="offset" />
          </mxGeometry>
        </mxCell>
        <mxCell id="sFwdMUUMSRQ0KmY-GtLs-66" value="Σελ επιλογη&lt;br&gt;μερας" style="text;html=1;align=center;verticalAlign=middle;resizable=0;points=[];autosize=1;strokeColor=none;fillColor=none;" parent="1" vertex="1">
          <mxGeometry x="485" y="33" width="90" height="40" as="geometry" />
        </mxCell>
        <mxCell id="sFwdMUUMSRQ0KmY-GtLs-67" value="checkDate()" style="endArrow=classic;html=1;rounded=0;" parent="1" source="sFwdMUUMSRQ0KmY-GtLs-36" target="sFwdMUUMSRQ0KmY-GtLs-46" edge="1">
          <mxGeometry x="-0.1623" y="10" width="50" height="50" relative="1" as="geometry">
            <mxPoint x="534" y="410" as="sourcePoint" />
            <mxPoint x="584" y="360" as="targetPoint" />
            <Array as="points">
              <mxPoint x="580" y="390" />
            </Array>
            <mxPoint as="offset" />
          </mxGeometry>
        </mxCell>
        <mxCell id="sFwdMUUMSRQ0KmY-GtLs-68" value="προγραμμα&lt;br&gt;διατροφ" style="text;html=1;align=center;verticalAlign=middle;resizable=0;points=[];autosize=1;strokeColor=none;fillColor=none;" parent="1" vertex="1">
          <mxGeometry x="565" y="33" width="90" height="40" as="geometry" />
        </mxCell>
        <mxCell id="sFwdMUUMSRQ0KmY-GtLs-69" value="σελ&lt;br&gt;επιλογης&lt;br&gt;ωρας" style="text;html=1;align=center;verticalAlign=middle;resizable=0;points=[];autosize=1;strokeColor=none;fillColor=none;" parent="1" vertex="1">
          <mxGeometry x="750" y="20" width="70" height="60" as="geometry" />
        </mxCell>
        <mxCell id="sFwdMUUMSRQ0KmY-GtLs-72" value="is the day available" style="shape=umlFrame;whiteSpace=wrap;html=1;pointerEvents=0;" parent="1" vertex="1">
          <mxGeometry x="520" y="440" width="260" height="100" as="geometry" />
        </mxCell>
        <mxCell id="sFwdMUUMSRQ0KmY-GtLs-73" value="" style="endArrow=none;dashed=1;html=1;rounded=0;dashPattern=8 8;" parent="1" target="sFwdMUUMSRQ0KmY-GtLs-33" edge="1">
          <mxGeometry width="50" height="50" relative="1" as="geometry">
            <mxPoint x="520" y="490" as="sourcePoint" />
            <mxPoint x="580" y="280" as="targetPoint" />
            <Array as="points">
              <mxPoint x="550" y="490" />
              <mxPoint x="580" y="490" />
              <mxPoint x="660" y="490" />
            </Array>
          </mxGeometry>
        </mxCell>
        <mxCell id="sFwdMUUMSRQ0KmY-GtLs-74" value="no" style="text;html=1;align=center;verticalAlign=middle;resizable=0;points=[];autosize=1;strokeColor=none;fillColor=none;" parent="1" vertex="1">
          <mxGeometry x="575" y="450" width="40" height="30" as="geometry" />
        </mxCell>
        <mxCell id="sFwdMUUMSRQ0KmY-GtLs-76" value="yes" style="text;html=1;align=center;verticalAlign=middle;resizable=0;points=[];autosize=1;strokeColor=none;fillColor=none;" parent="1" vertex="1">
          <mxGeometry x="560" y="500" width="40" height="30" as="geometry" />
        </mxCell>
        <mxCell id="sFwdMUUMSRQ0KmY-GtLs-78" value="σελ&amp;nbsp;&lt;br&gt;σφαλματος" style="text;html=1;align=center;verticalAlign=middle;resizable=0;points=[];autosize=1;strokeColor=none;fillColor=none;" parent="1" vertex="1">
          <mxGeometry x="655" y="33" width="80" height="40" as="geometry" />
        </mxCell>
        <mxCell id="sFwdMUUMSRQ0KmY-GtLs-79" value="show()" style="endArrow=classic;html=1;rounded=0;" parent="1" source="sFwdMUUMSRQ0KmY-GtLs-46" target="sFwdMUUMSRQ0KmY-GtLs-33" edge="1">
          <mxGeometry x="-0.4757" y="10" width="50" height="50" relative="1" as="geometry">
            <mxPoint x="530" y="330" as="sourcePoint" />
            <mxPoint x="580" y="280" as="targetPoint" />
            <Array as="points">
              <mxPoint x="730" y="520" />
            </Array>
            <mxPoint as="offset" />
          </mxGeometry>
        </mxCell>
        <mxCell id="sFwdMUUMSRQ0KmY-GtLs-81" value="show()" style="endArrow=classic;html=1;rounded=0;" parent="1" source="sFwdMUUMSRQ0KmY-GtLs-46" target="sFwdMUUMSRQ0KmY-GtLs-38" edge="1">
          <mxGeometry x="-0.1839" y="10" width="50" height="50" relative="1" as="geometry">
            <mxPoint x="530" y="330" as="sourcePoint" />
            <mxPoint x="580" y="280" as="targetPoint" />
            <Array as="points">
              <mxPoint x="660" y="460" />
            </Array>
            <mxPoint as="offset" />
          </mxGeometry>
        </mxCell>
        <mxCell id="sFwdMUUMSRQ0KmY-GtLs-82" value="show()" style="endArrow=classic;html=1;rounded=0;dashed=1;" parent="1" source="sFwdMUUMSRQ0KmY-GtLs-38" target="sFwdMUUMSRQ0KmY-GtLs-32" edge="1">
          <mxGeometry x="-0.8755" y="-9" width="50" height="50" relative="1" as="geometry">
            <mxPoint x="700" y="549" as="sourcePoint" />
            <mxPoint x="580" y="280" as="targetPoint" />
            <Array as="points">
              <mxPoint x="470" y="480" />
            </Array>
            <mxPoint as="offset" />
          </mxGeometry>
        </mxCell>
        <mxCell id="sFwdMUUMSRQ0KmY-GtLs-88" value="σελ &lt;br&gt;επιβεβαιωσης" style="text;html=1;align=center;verticalAlign=middle;resizable=0;points=[];autosize=1;strokeColor=none;fillColor=none;" parent="1" vertex="1">
          <mxGeometry x="810" y="23" width="100" height="40" as="geometry" />
        </mxCell>
        <mxCell id="sFwdMUUMSRQ0KmY-GtLs-92" value="confirm?" style="shape=umlFrame;whiteSpace=wrap;html=1;pointerEvents=0;" parent="1" vertex="1">
          <mxGeometry x="770" y="650" width="320" height="135" as="geometry" />
        </mxCell>
        <mxCell id="sFwdMUUMSRQ0KmY-GtLs-93" value="" style="endArrow=none;dashed=1;html=1;rounded=0;entryX=1;entryY=0.747;entryDx=0;entryDy=0;entryPerimeter=0;exitX=-0.012;exitY=0.754;exitDx=0;exitDy=0;exitPerimeter=0;" parent="1" source="sFwdMUUMSRQ0KmY-GtLs-92" target="sFwdMUUMSRQ0KmY-GtLs-92" edge="1">
          <mxGeometry width="50" height="50" relative="1" as="geometry">
            <mxPoint x="530" y="590" as="sourcePoint" />
            <mxPoint x="580" y="540" as="targetPoint" />
          </mxGeometry>
        </mxCell>
        <mxCell id="sFwdMUUMSRQ0KmY-GtLs-94" value="yes" style="text;html=1;align=center;verticalAlign=middle;resizable=0;points=[];autosize=1;strokeColor=none;fillColor=none;" parent="1" vertex="1">
          <mxGeometry x="790" y="680" width="40" height="30" as="geometry" />
        </mxCell>
        <mxCell id="sFwdMUUMSRQ0KmY-GtLs-95" value="no" style="text;html=1;align=center;verticalAlign=middle;resizable=0;points=[];autosize=1;strokeColor=none;fillColor=none;" parent="1" vertex="1">
          <mxGeometry x="790" y="750" width="40" height="30" as="geometry" />
        </mxCell>
        <mxCell id="sFwdMUUMSRQ0KmY-GtLs-97" value="show()" style="endArrow=classic;html=1;rounded=0;" parent="1" source="sFwdMUUMSRQ0KmY-GtLs-33" target="sFwdMUUMSRQ0KmY-GtLs-35" edge="1">
          <mxGeometry x="-0.2087" y="10" width="50" height="50" relative="1" as="geometry">
            <mxPoint x="530" y="600" as="sourcePoint" />
            <mxPoint x="580" y="550" as="targetPoint" />
            <Array as="points">
              <mxPoint x="800" y="600" />
              <mxPoint x="830" y="600" />
              <mxPoint x="850" y="600" />
            </Array>
            <mxPoint as="offset" />
          </mxGeometry>
        </mxCell>
        <mxCell id="sFwdMUUMSRQ0KmY-GtLs-99" value="choseHour()" style="endArrow=classic;html=1;rounded=0;" parent="1" source="sFwdMUUMSRQ0KmY-GtLs-42" target="sFwdMUUMSRQ0KmY-GtLs-33" edge="1">
          <mxGeometry x="-0.0211" y="10" width="50" height="50" relative="1" as="geometry">
            <mxPoint x="530" y="480" as="sourcePoint" />
            <mxPoint x="580" y="430" as="targetPoint" />
            <Array as="points">
              <mxPoint x="490" y="560" />
            </Array>
            <mxPoint as="offset" />
          </mxGeometry>
        </mxCell>
        <mxCell id="sFwdMUUMSRQ0KmY-GtLs-100" value="confirm()" style="endArrow=classic;html=1;rounded=0;" parent="1" source="sFwdMUUMSRQ0KmY-GtLs-42" target="sFwdMUUMSRQ0KmY-GtLs-35" edge="1">
          <mxGeometry x="-0.0051" y="10" width="50" height="50" relative="1" as="geometry">
            <mxPoint x="530" y="600" as="sourcePoint" />
            <mxPoint x="580" y="550" as="targetPoint" />
            <Array as="points">
              <mxPoint x="480" y="640" />
            </Array>
            <mxPoint as="offset" />
          </mxGeometry>
        </mxCell>
        <mxCell id="sFwdMUUMSRQ0KmY-GtLs-101" value="show()" style="endArrow=classic;html=1;rounded=0;dashed=1;" parent="1" source="sFwdMUUMSRQ0KmY-GtLs-35" target="sFwdMUUMSRQ0KmY-GtLs-32" edge="1">
          <mxGeometry x="-0.611" y="-10" width="50" height="50" relative="1" as="geometry">
            <mxPoint x="390" y="600" as="sourcePoint" />
            <mxPoint x="440" y="550" as="targetPoint" />
            <Array as="points">
              <mxPoint x="490" y="770" />
            </Array>
            <mxPoint as="offset" />
          </mxGeometry>
        </mxCell>
        <mxCell id="sFwdMUUMSRQ0KmY-GtLs-102" value="update()" style="endArrow=classic;html=1;rounded=0;" parent="1" source="sFwdMUUMSRQ0KmY-GtLs-35" target="sFwdMUUMSRQ0KmY-GtLs-47" edge="1">
          <mxGeometry x="-0.0402" y="10" width="50" height="50" relative="1" as="geometry">
            <mxPoint x="390" y="480" as="sourcePoint" />
            <mxPoint x="440" y="430" as="targetPoint" />
            <Array as="points">
              <mxPoint x="900" y="680" />
            </Array>
            <mxPoint as="offset" />
          </mxGeometry>
        </mxCell>
        <mxCell id="sFwdMUUMSRQ0KmY-GtLs-103" value="λιστα&lt;br&gt;ραντεβου" style="text;html=1;align=center;verticalAlign=middle;resizable=0;points=[];autosize=1;strokeColor=none;fillColor=none;" parent="1" vertex="1">
          <mxGeometry x="910" y="33" width="70" height="40" as="geometry" />
        </mxCell>
        <mxCell id="sFwdMUUMSRQ0KmY-GtLs-105" value="σελ&amp;nbsp;&lt;br&gt;λιστα&amp;nbsp;&lt;br&gt;ραντεβου" style="text;html=1;align=center;verticalAlign=middle;resizable=0;points=[];autosize=1;strokeColor=none;fillColor=none;" parent="1" vertex="1">
          <mxGeometry x="995" y="23" width="70" height="60" as="geometry" />
        </mxCell>
        <mxCell id="sFwdMUUMSRQ0KmY-GtLs-106" value="show()" style="endArrow=classic;html=1;rounded=0;" parent="1" source="sFwdMUUMSRQ0KmY-GtLs-47" target="sFwdMUUMSRQ0KmY-GtLs-118" edge="1">
          <mxGeometry x="-0.0449" y="10" width="50" height="50" relative="1" as="geometry">
            <mxPoint x="490" y="460" as="sourcePoint" />
            <mxPoint x="540" y="410" as="targetPoint" />
            <Array as="points">
              <mxPoint x="990" y="720" />
            </Array>
            <mxPoint as="offset" />
          </mxGeometry>
        </mxCell>
        <mxCell id="sFwdMUUMSRQ0KmY-GtLs-112" value="" style="html=1;points=[];perimeter=orthogonalPerimeter;outlineConnect=0;targetShapes=umlLifeline;portConstraint=eastwest;newEdgeStyle={&quot;edgeStyle&quot;:&quot;elbowEdgeStyle&quot;,&quot;elbow&quot;:&quot;vertical&quot;,&quot;curved&quot;:0,&quot;rounded&quot;:0};" parent="1" vertex="1">
          <mxGeometry x="615" y="390" width="10" height="130" as="geometry" />
        </mxCell>
        <mxCell id="sFwdMUUMSRQ0KmY-GtLs-113" value="" style="html=1;points=[];perimeter=orthogonalPerimeter;outlineConnect=0;targetShapes=umlLifeline;portConstraint=eastwest;newEdgeStyle={&quot;edgeStyle&quot;:&quot;elbowEdgeStyle&quot;,&quot;elbow&quot;:&quot;vertical&quot;,&quot;curved&quot;:0,&quot;rounded&quot;:0};direction=west;" parent="1" vertex="1">
          <mxGeometry x="690" y="460" width="10" height="20" as="geometry" />
        </mxCell>
        <mxCell id="sFwdMUUMSRQ0KmY-GtLs-116" value="" style="html=1;points=[];perimeter=orthogonalPerimeter;outlineConnect=0;targetShapes=umlLifeline;portConstraint=eastwest;newEdgeStyle={&quot;edgeStyle&quot;:&quot;elbowEdgeStyle&quot;,&quot;elbow&quot;:&quot;vertical&quot;,&quot;curved&quot;:0,&quot;rounded&quot;:0};" parent="1" vertex="1">
          <mxGeometry x="850" y="600" width="10" height="170" as="geometry" />
        </mxCell>
        <mxCell id="sFwdMUUMSRQ0KmY-GtLs-118" value="" style="html=1;points=[];perimeter=orthogonalPerimeter;outlineConnect=0;targetShapes=umlLifeline;portConstraint=eastwest;newEdgeStyle={&quot;edgeStyle&quot;:&quot;elbowEdgeStyle&quot;,&quot;elbow&quot;:&quot;vertical&quot;,&quot;curved&quot;:0,&quot;rounded&quot;:0};" parent="1" vertex="1">
          <mxGeometry x="1030" y="720" width="10" height="30" as="geometry" />
        </mxCell>
      </root>
    </mxGraphModel>
  </diagram>
</mxfile>
